<?xml version="1.0" standalone="no"?>
<!DOCTYPE svg PUBLIC "-//W3C//DTD SVG 20010904//EN"
 "http://www.w3.org/TR/2001/REC-SVG-20010904/DTD/svg10.dtd">
<svg version="1.0" xmlns="http://www.w3.org/2000/svg"
 width="192.000000pt" height="192.000000pt" viewBox="0 0 192.000000 192.000000"
 preserveAspectRatio="xMidYMid meet">
<metadata>
Created by potrace 1.11, written by Peter Selinger 2001-2013
</metadata>
<g transform="translate(0.000000,192.000000) scale(0.100000,-0.100000)"
fill="#000000" stroke="none">
<path d="M778 1915 c-2 -1 -41 -6 -88 -10 -159 -13 -307 -49 -381 -94 -129
-79 -233 -234 -264 -396 -33 -170 -38 -233 -39 -450 0 -126 3 -252 7 -280 4
-27 12 -79 18 -115 41 -269 193 -457 416 -515 139 -37 268 -49 508 -49 382 -1
584 40 716 144 48 39 125 140 154 205 62 135 89 310 90 580 0 225 -5 302 -30
434 -32 165 -91 282 -191 377 -83 79 -201 126 -369 149 -28 3 -64 8 -80 11
-33 5 -462 14 -467 9z"/>
</g>
</svg>
